<svg width="100" height="100" viewBox="0 0 100 100" fill="none" xmlns="http://www.w3.org/2000/svg">
<rect width="100" height="100" rx="25" fill="white"/>
<g filter="url(#filter0_d)">
<path d="M59.5 24C59.5 28.6462 55.2976 32.5 50 32.5C44.7024 32.5 40.5 28.6462 40.5 24C40.5 19.3538 44.7024 15.5 50 15.5C55.2976 15.5 59.5 19.3538 59.5 24Z" fill="black" stroke="black"/>
<path d="M56.4565 18.8135C56.7881 19.1763 56.9974 19.5544 57.0826 19.8543C57.1252 20.0041 57.1312 20.1145 57.1222 20.1846C57.1179 20.2181 57.1108 20.2377 57.1062 20.2473C57.104 20.2521 57.1022 20.2547 57.1013 20.256C57.1005 20.2571 57.0999 20.2577 57.0995 20.258C57.0991 20.2584 57.0985 20.2589 57.0973 20.2596C57.096 20.2604 57.0932 20.2619 57.0883 20.2637C57.0783 20.2674 57.0581 20.2728 57.0243 20.2741C56.9538 20.2768 56.8443 20.2608 56.6989 20.205C56.4079 20.0933 56.05 19.851 55.7184 19.4882C55.3868 19.1255 55.1776 18.7473 55.0924 18.4474C55.0498 18.2976 55.0437 18.1872 55.0527 18.1172C55.0571 18.0837 55.0642 18.0641 55.0688 18.0544C55.071 18.0497 55.0728 18.047 55.0737 18.0458C55.0745 18.0446 55.0751 18.0441 55.0754 18.0437C55.0758 18.0434 55.0764 18.0429 55.0777 18.0421C55.079 18.0414 55.0818 18.0398 55.0867 18.038C55.0967 18.0343 55.1169 18.029 55.1506 18.0277C55.2212 18.025 55.3306 18.0409 55.476 18.0967C55.7671 18.2085 56.1249 18.4508 56.4565 18.8135Z" fill="#E2E2E2" stroke="#E2E2E2"/>
<path d="M44.4565 19.4882C44.1249 19.851 43.7671 20.0932 43.476 20.205C43.3306 20.2608 43.2212 20.2768 43.1506 20.274C43.1169 20.2727 43.0967 20.2674 43.0867 20.2637C43.0818 20.2619 43.079 20.2604 43.0777 20.2596C43.0764 20.2589 43.0758 20.2584 43.0754 20.258C43.075 20.2576 43.0745 20.2571 43.0736 20.2559C43.0728 20.2547 43.071 20.2521 43.0688 20.2473C43.0642 20.2377 43.0571 20.2181 43.0527 20.1845C43.0437 20.1145 43.0498 20.0041 43.0924 19.8543C43.1776 19.5544 43.3868 19.1763 43.7185 18.8135C44.0501 18.4508 44.4079 18.2085 44.699 18.0968C44.8444 18.0409 44.9538 18.025 45.0244 18.0277C45.0581 18.029 45.0783 18.0344 45.0883 18.038C45.0933 18.0399 45.096 18.0414 45.0973 18.0422C45.0986 18.0429 45.0992 18.0434 45.0996 18.0437C45.1 18.0441 45.1005 18.0447 45.1014 18.0458C45.1022 18.047 45.104 18.0497 45.1063 18.0544C45.1108 18.0641 45.1179 18.0837 45.1223 18.1172C45.1313 18.1872 45.1252 18.2977 45.0826 18.4475C44.9974 18.7474 44.7882 19.1255 44.4565 19.4882Z" fill="#E2E2E2" stroke="#E2E2E2"/>
<path d="M47 16C45.4 14.8 45 12.1667 45 11" stroke="black"/>
<path d="M53 16C54.6 14.8 55 12.1667 55 11" stroke="black"/>
<path d="M75.5 49.5C75.5 62.1562 64.132 72.5 50 72.5C35.868 72.5 24.5 62.1562 24.5 49.5C24.5 36.8438 35.868 26.5 50 26.5C64.132 26.5 75.5 36.8438 75.5 49.5Z" fill="#D61204" stroke="black"/>
<path d="M53.4805 24L53.4805 75.1875H41.2812C35.3047 75.1875 30.6641 73.3125 27.3594 69.5625C24.0547 65.8359 22.4023 60.5859 22.4023 53.8125V45.2344C22.4023 38.4609 24.0781 33.2227 27.4297 29.5195C30.7813 25.8398 35.6445 24 42.0195 24H53.4805ZM47.0469 69.6328L47.0469 29.5195H41.8789C37.3555 29.5195 34.0508 30.8086 31.9648 33.3867C29.8789 35.9883 28.8125 39.832 28.7656 44.918L28.7656 53.9883C28.7656 59.3789 29.8086 63.3281 31.8945 65.8359C33.957 68.3672 37.0859 69.6328 41.2812 69.6328H47.0469Z" fill="black"/>
<path d="M53.4805 24H54.4805V23H53.4805V24ZM53.4805 75.1875V76.1875H54.4805V75.1875H53.4805ZM27.3594 69.5625L28.1096 68.9013L28.1076 68.899L27.3594 69.5625ZM27.4297 29.5195L26.6904 28.8462L26.6883 28.8485L27.4297 29.5195ZM47.0469 69.6328V70.6328H48.0469V69.6328H47.0469ZM47.0469 29.5195H48.0469V28.5195H47.0469V29.5195ZM31.9648 33.3867L31.1874 32.7577L31.1847 32.7612L31.9648 33.3867ZM28.7656 44.918L27.7656 44.9088V44.918H28.7656ZM31.8945 65.8359L32.6698 65.2042L32.6633 65.1965L31.8945 65.8359ZM52.4805 24L52.4805 75.1875H54.4805L54.4805 24H52.4805ZM53.4805 74.1875H41.2812V76.1875H53.4805V74.1875ZM41.2812 74.1875C35.5304 74.1875 31.1873 72.3937 28.1096 68.9013L26.6091 70.2237C30.1408 74.2313 35.079 76.1875 41.2812 76.1875V74.1875ZM28.1076 68.899C25.0156 65.4124 23.4023 60.4301 23.4023 53.8125H21.4023C21.4023 60.7418 23.0938 66.2595 26.6112 70.226L28.1076 68.899ZM23.4023 53.8125V45.2344H21.4023V53.8125H23.4023ZM23.4023 45.2344C23.4023 38.6196 25.0375 33.6529 28.1711 30.1906L26.6883 28.8485C23.1187 32.7924 21.4023 38.3023 21.4023 45.2344H23.4023ZM28.169 30.1929C31.281 26.7762 35.8419 25 42.0195 25V23C35.4472 23 30.2815 24.9035 26.6904 28.8462L28.169 30.1929ZM42.0195 25H53.4805V23H42.0195V25ZM48.0469 69.6328L48.0469 29.5195H46.0469L46.0469 69.6328H48.0469ZM47.0469 28.5195H41.8789V30.5195H47.0469V28.5195ZM41.8789 28.5195C37.1702 28.5195 33.5261 29.8672 31.1874 32.7577L32.7423 34.0157C34.5755 31.7499 37.5407 30.5195 41.8789 30.5195V28.5195ZM31.1847 32.7612C28.9016 35.6086 27.8136 39.7104 27.7657 44.9088L29.7656 44.9272C29.8114 39.9536 30.8562 36.368 32.745 34.0123L31.1847 32.7612ZM27.7656 44.918L27.7656 53.9883H29.7656L29.7656 44.918H27.7656ZM27.7656 53.9883C27.7656 59.4715 28.8199 63.7033 31.1257 66.4754L32.6633 65.1965C30.7973 62.953 29.7656 59.2863 29.7656 53.9883H27.7656ZM31.1193 66.4676C33.4234 69.2954 36.878 70.6328 41.2812 70.6328V68.6328C37.2938 68.6328 34.4907 67.439 32.6698 65.2043L31.1193 66.4676ZM41.2812 70.6328H47.0469V68.6328H41.2812V70.6328Z" fill="black"/>
<path d="M47.0495 75.2V24.0125H59.2487C65.2253 24.0125 69.8659 25.8875 73.1706 29.6375C76.4753 33.3641 78.1277 38.6141 78.1277 45.3875V53.9656C78.1277 60.7391 76.4519 65.9774 73.1003 69.6805C69.7487 73.3602 64.8855 75.2 58.5105 75.2H47.0495ZM53.4831 29.5672V69.6805H58.6511C63.1745 69.6805 66.4792 68.3914 68.5652 65.8133C70.6511 63.2117 71.7175 59.368 71.7644 54.282V45.2117C71.7644 39.8211 70.7214 35.8719 68.6355 33.3641C66.573 30.8328 63.4441 29.5672 59.2487 29.5672H53.4831Z" fill="black"/>
<path d="M47.0495 75.2H46.0495V76.2H47.0495V75.2ZM47.0495 24.0125V23.0125H46.0495V24.0125H47.0495ZM73.1706 29.6375L72.4204 30.2987L72.4224 30.301L73.1706 29.6375ZM73.1003 69.6805L73.8396 70.3539L73.8417 70.3515L73.1003 69.6805ZM53.4831 29.5672V28.5672H52.4831V29.5672H53.4831ZM53.4831 69.6805H52.4831V70.6805H53.4831V69.6805ZM68.5652 65.8133L69.3426 66.4423L69.3453 66.4388L68.5652 65.8133ZM71.7644 54.282L72.7644 54.2913V54.282H71.7644ZM68.6355 33.3641L67.8602 33.9958L67.8667 34.0036L68.6355 33.3641ZM48.0495 75.2V24.0125H46.0495V75.2H48.0495ZM47.0495 25.0125H59.2487V23.0125H47.0495V25.0125ZM59.2487 25.0125C64.9996 25.0125 69.3427 26.8063 72.4204 30.2987L73.9209 28.9764C70.3892 24.9688 65.451 23.0125 59.2487 23.0125V25.0125ZM72.4224 30.301C75.5144 33.7877 77.1277 38.7699 77.1277 45.3875H79.1277C79.1277 38.4583 77.4362 32.9405 73.9188 28.974L72.4224 30.301ZM77.1277 45.3875V53.9656H79.1277V45.3875H77.1277ZM77.1277 53.9656C77.1277 60.5804 75.4925 65.5471 72.3589 69.0094L73.8417 70.3515C77.4113 66.4076 79.1277 60.8977 79.1277 53.9656H77.1277ZM72.361 69.0071C69.249 72.4238 64.6881 74.2 58.5105 74.2V76.2C65.0828 76.2 70.2485 74.2965 73.8396 70.3539L72.361 69.0071ZM58.5105 74.2H47.0495V76.2H58.5105V74.2ZM52.4831 29.5672V69.6805H54.4831V29.5672H52.4831ZM53.4831 70.6805H58.6511V68.6805H53.4831V70.6805ZM58.6511 70.6805C63.3598 70.6805 67.0039 69.3328 69.3426 66.4423L67.7877 65.1843C65.9545 67.4501 62.9893 68.6805 58.6511 68.6805V70.6805ZM69.3453 66.4388C71.6284 63.5914 72.7164 59.4896 72.7643 54.2913L70.7644 54.2728C70.7186 59.2464 69.6738 62.832 67.785 65.1877L69.3453 66.4388ZM72.7644 54.282V45.2117H70.7644V54.282H72.7644ZM72.7644 45.2117C72.7644 39.7285 71.7101 35.4967 69.4043 32.7246L67.8667 34.0036C69.7327 36.247 70.7644 39.9137 70.7644 45.2117H72.7644ZM69.4107 32.7324C67.1066 29.9046 63.652 28.5672 59.2487 28.5672V30.5672C63.2361 30.5672 66.0393 31.761 67.8602 33.9957L69.4107 32.7324ZM59.2487 28.5672H53.4831V30.5672H59.2487V28.5672Z" fill="black"/>
<circle cx="37" cy="36" r="0.5" fill="black" stroke="black"/>
<circle cx="42.5" cy="51.5" r="1" fill="black" stroke="black"/>
<circle cx="58.5" cy="38.5" r="1" fill="black" stroke="black"/>
<circle cx="65.5" cy="44.5" r="1" fill="black" stroke="black"/>
<circle cx="59" cy="57" r="0.5" fill="black" stroke="black"/>
<circle cx="38" cy="63" r="0.5" fill="black" stroke="black"/>
<circle cx="35" cy="44" r="1.5" fill="black" stroke="black"/>
<circle cx="65" cy="63" r="0.5" fill="black" stroke="black"/>
<circle cx="60" cy="49" r="0.5" fill="black" stroke="black"/>
<circle cx="36" cy="53" r="0.5" fill="black" stroke="black"/>
<circle cx="43" cy="40" r="0.5" fill="black" stroke="black"/>
<circle cx="65" cy="35" r="0.5" fill="black" stroke="black"/>
<circle cx="66" cy="53" r="0.5" fill="black" stroke="black"/>
<path d="M27 38L18.7391 40.5L14.0186 50.5" stroke="black" stroke-width="3"/>
<path d="M8 55.5L13.3106 52L14.4907 49.5" stroke="black" stroke-width="2"/>
<path d="M74 38L82.2609 40.5L86.9814 50.5" stroke="black" stroke-width="3"/>
<path d="M93 55.5L87.6894 52L86.5093 49.5" stroke="black" stroke-width="2"/>
<path d="M65.5293 28.8213L72.8617 24.2684L74.8331 13.3874" stroke="black" stroke-width="3"/>
<path d="M79.3526 7L75.1289 11.7552L74.636 14.4755" stroke="black" stroke-width="2"/>
<path d="M34.3526 28.8213L27.0203 24.2684L25.0488 13.3874" stroke="black" stroke-width="3"/>
<path d="M20.5293 7L24.7531 11.7552L25.2459 14.4755" stroke="black" stroke-width="2"/>
<path d="M73.2736 63L78.9544 69.4977L77.6584 80.4797" stroke="black" stroke-width="3"/>
<path d="M80.1129 87.9093L77.464 82.127L77.788 79.3815" stroke="black" stroke-width="2"/>
<path d="M27.1129 63L21.4321 69.4977L22.7281 80.4797" stroke="black" stroke-width="3"/>
<path d="M20.2736 87.9093L22.9225 82.127L22.5985 79.3815" stroke="black" stroke-width="2"/>
</g>
<defs>
<filter id="filter0_d" x="3.4497" y="6.05106" width="94.1006" height="90.858" filterUnits="userSpaceOnUse" color-interpolation-filters="sRGB">
<feFlood flood-opacity="0" result="BackgroundImageFix"/>
<feColorMatrix in="SourceAlpha" type="matrix" values="0 0 0 0 0 0 0 0 0 0 0 0 0 0 0 0 0 0 127 0" result="hardAlpha"/>
<feOffset dy="4"/>
<feGaussianBlur stdDeviation="2"/>
<feComposite in2="hardAlpha" operator="out"/>
<feColorMatrix type="matrix" values="0 0 0 0 0 0 0 0 0 0 0 0 0 0 0 0 0 0 0.25 0"/>
<feBlend mode="normal" in2="BackgroundImageFix" result="effect1_dropShadow"/>
<feBlend mode="normal" in="SourceGraphic" in2="effect1_dropShadow" result="shape"/>
</filter>
</defs>
</svg>
